#!OML:ASF H:\Not Pregnant\Project 1\Capture day 1\Session 1\non-pregnant.ASF
:FULLY-SPECIFIED
:DEGREES
924
root 9.75428 15.3162 35.0487 515.249 -77.8622 -504.812
lowerback 5.77176 2.4689 -2.09459
upperback -5.57687 3.12363 0.974017
thorax -9.31977 1.66968 1.77954
lowerneck 11.8434 -8.98075 -26.7428
upperneck -9.59515 -16.591 44.7147
head 2.57782 -10.8788 22.3723
rclavicle 3.78933e-014 2.62396e-014
rhumerus -40.483 -3.24969 -76.1106
rradius 38.3043
rwrist 18.9336
rhand -6.93059 4.54073
rfingers 7.12502
rthumb 18.9376 -24.5574
lclavicle 3.78933e-014 2.62396e-014
lhumerus -51.9875 -6.56519 87.2874
lradius 36.4542
lwrist 40.0595
lhand -15.7585 -14.2047
lfingers 7.12502
lthumb 10.4331 15.5164
rfemur -44.4699 -0.0324533 25.1415
rtibia 83.5229
rfoot -10.6128 7.53746
rtoes -23.403
lfemur -36.286 1.14454 -16.6739
ltibia 45.098
lfoot -17.6232 -6.77327
ltoes -7.98262
925
root 9.74698 15.3296 35.0663 515.58 -77.8803 -505.571
lowerback 6.16868 2.40347 -2.42717
upperback -5.43588 2.99935 0.957644
thorax -9.41276 1.6321 1.953
lowerneck 11.8133 -8.95172 -26.726
upperneck -9.60449 -16.5508 44.7515
head 2.56835 -10.8652 22.4058
rclavicle -2.52953e-014 1.66979e-014
rhumerus -40.2116 -3.2828 -75.9884
rradius 38.6887
rwrist 18.8841
rhand -7.33916 4.441
rfingers 7.12502
rthumb 18.5446 -24.695
lclavicle -2.52953e-014 1.66979e-014
lhumerus -51.4008 -7.3236 87.483
lradius 36.6253
lwrist 40.1873
lhand -15.7497 -14.3328
lfingers 7.12502
lthumb 10.4416 15.3879
rfemur -46.8748 -0.0915491 24.9462
rtibia 87.0706
rfoot -10.8465 8.3794
rtoes -23.3459
lfemur -35.5313 1.37269 -16.9361
ltibia 44.5943
lfoot -17.4596 -7.08385
ltoes -7.80133
926
root 9.7391 15.3438 35.0836 515.435 -77.9161 -505.849
lowerback 6.53654 2.32373 -2.66473
upperback -5.283 2.86607 0.968649
thorax -9.46951 1.58437 2.10657
lowerneck 11.7783 -8.93243 -26.72
upperneck -9.60727 -16.5238 44.7737
head 2.56621 -10.8548 22.4258
rclavicle 2.48481e-017 -7.95139e-015
rhumerus -39.9353 -3.32041 -75.8648
rradius 39.0533
rwrist 18.8421
rhand -7.81685 4.33828
rfingers 7.12502
rthumb 18.0851 -24.8409
lclavicle 2.48481e-017 -7.95139e-015
lhumerus -50.715 -8.0655 87.6346
lradius 36.6961
lwrist 40.1887
lhand -15.7418 -14.4671
lfingers 7.12502
lthumb 10.4492 15.2532
rfemur -49.3031 -0.230601 24.8647
rtibia 90.5159
rfoot -11.0403 8.87715
rtoes -23.3955
lfemur -34.7877 1.52023 -17.1025
ltibia 44.1093
lfoot -17.2997 -7.33937
ltoes -7.79576
927
root 9.73074 15.359 35.0999 514.75 -77.9519 -505.58
lowerback 6.87374 2.2319 -2.79996
upperback -5.11753 2.72975 1.01561
thorax -9.48895 1.52914 2.24425
lowerneck 11.7392 -8.92135 -26.7333
upperneck -9.60555 -16.5107 44.7893
head 2.57366 -10.8492 22.4413
rclavicle -1.79155e-014 1.82882e-014
rhumerus -39.6538 -3.32455 -75.7516
rradius 39.3975
rwrist 18.7674
rhand -8.35648 4.22989
rfingers 7.12502
rthumb 17.5658 -24.9966
lclavicle -1.79155e-014 1.82882e-014
lhumerus -49.9381 -8.79339 87.7446
lradius 36.6782
lwrist 40.0833
lhand -15.7199 -14.6093
lfingers 7.12502
lthumb 10.4704 15.1099
rfemur -51.749 -0.425798 24.9197
rtibia 93.8366
rfoot -11.2414 9.11376
rtoes -23.5197
lfemur -34.0529 1.59306 -17.15
ltibia 43.6396
lfoot -17.1463 -7.53077
ltoes -7.93207
928
root 9.7218 15.3761 35.1154 513.541 -77.9841 -504.796
lowerback 7.20172 2.13372 -2.84427
upperback -4.93984 2.59757 1.09908
thorax -9.48577 1.47079 2.37088
lowerneck 11.7098 -8.91875 -26.7561
upperneck -9.60924 -16.5081 44.7915
head 2.58113 -10.8471 22.4465
rclavicle 1.36167e-014 1.74931e-014
rhumerus -39.3744 -3.30856 -75.6302
rradius 39.7111
rwrist 18.6692
rhand -8.93037 4.13184
rfingers 7.12502
rthumb 17.0135 -25.1431
lclavicle 1.36167e-014 1.74931e-014
lhumerus -49.0749 -9.48586 87.8086
lradius 36.5719
lwrist 39.8549
lhand -15.6943 -14.7644
lfingers 7.12502
lthumb 10.4951 14.9536
rfemur -54.1862 -0.656956 25.0968
rtibia 97.008
rfoot -11.4751 9.18366
rtoes -23.6796
lfemur -33.301 1.57445 -17.0824
ltibia 43.1723
lfoot -16.9931 -7.65057
ltoes -8.10042
929
root 9.71255 15.3948 35.1299 511.914 -78.0169 -503.616
lowerback 7.53814 2.03728 -2.82189
upperback -4.74954 2.47693 1.20637
thorax -9.47157 1.41416 2.48457
lowerneck 11.7019 -8.92627 -26.7827
upperneck -9.6299 -16.5187 44.7892
head 2.58538 -10.8528 22.4473
rclavicle -1.03865e-014 -1.11319e-014
rhumerus -39.1096 -3.30152 -75.4915
rradius 39.9943
rwrist 18.5624
rhand -9.51658 4.05244
rfingers 7.12502
rthumb 16.4491 -25.2702
lclavicle -1.03865e-014 -1.11319e-014
lhumerus -48.1293 -10.1433 87.8225
lradius 36.3849
lwrist 39.5146
lhand -15.6507 -14.9181
lfingers 7.12502
lthumb 10.5371 14.7977
rfemur -56.6069 -0.925307 25.3608
rtibia 100.018
rfoot -11.7155 9.19185
rtoes -23.7845
lfemur -32.5134 1.46686 -16.9308
ltibia 42.6934
lfoot -16.8357 -7.69928
ltoes -8.30383
930
root 9.70328 15.4151 35.1437 509.99 -78.0554 -502.173
lowerback 7.89484 1.94493 -2.76305
upperback -4.5448 2.36686 1.32795
thorax -9.45272 1.36046 2.59182
lowerneck 11.7165 -8.9448 -26.8047
upperneck -9.67141 -16.5417 44.7821
head 2.58355 -10.8662 22.4411
rclavicle 2.85753e-015 8.74653e-015
rhumerus -38.8597 -3.30556 -75.3363
rradius 40.245
rwrist 18.452
rhand -10.0932 3.99812
rfingers 7.12502
rthumb 15.8939 -25.3696
lclavicle 2.85753e-015 8.74653e-015
lhumerus -47.1077 -10.7494 87.7867
lradius 36.1299
lwrist 39.0747
lhand -15.6364 -15.0825
lfingers 7.12502
lthumb 10.5509 14.6327
rfemur -59.0053 -1.21883 25.6719
rtibia 102.861
rfoot -11.9366 9.22133
rtoes -23.8499
lfemur -31.6771 1.27302 -16.7286
ltibia 42.1934
lfoot -16.6666 -7.69032
ltoes -8.45
931
root 9.69302 15.4366 35.1574 507.89 -78.0928 -500.62
lowerback 8.29023 1.86463 -2.68346
upperback -4.31392 2.27552 1.45598
thorax -9.42838 1.31427 2.69133
lowerneck 11.7546 -8.97406 -26.8243
upperneck -9.73568 -16.5776 44.7746
head 2.57638 -10.8883 22.4319
rclavicle 2.62893e-014 7.15625e-015
rhumerus -38.627 -3.32944 -75.1563
rradius 40.4647
rwrist 18.355
rhand -10.6478 3.96298
rfingers 7.12502
rthumb 15.3598 -25.4465
lclavicle 2.62893e-014 7.15625e-015
lhumerus -46.0081 -11.2635 87.6871
lradius 35.8136
lwrist 38.5254
lhand -15.635 -15.247
lfingers 7.12502
lthumb 10.5523 14.4681
rfemur -61.3422 -1.53623 25.982
rtibia 105.531
rfoot -12.145 9.3416
rtoes -23.932
lfemur -30.7467 0.975183 -16.5073
ltibia 41.6667
lfoot -16.4875 -7.58977
ltoes -8.58877
932
root 9.68404 15.4574 35.1692 505.69 -78.1495 -499.001
lowerback 8.71365 1.79192 -2.63252
upperback -4.07021 2.19054 1.58739
thorax -9.4082 1.27272 2.80985
lowerneck 11.8133 -9.0112 -26.8332
upperneck -9.8251 -16.6206 44.7704
head 2.56081 -10.9168 22.422
rclavicle -1.10822e-014 6.36111e-015
rhumerus -38.4075 -3.37555 -74.959
rradius 40.6541
rwrist 18.2701
rhand -11.1646 3.94821
rfingers 7.12502
rthumb 14.862 -25.4987
lclavicle -1.10822e-014 6.36111e-015
lhumerus -44.8466 -11.7027 87.5368
lradius 35.4673
lwrist 37.9219
lhand -15.6897 -15.4028
lfingers 7.12502
lthumb 10.4995 14.3149
rfemur -63.6802 -1.86574 26.2867
rtibia 108.05
rfoot -12.3249 9.5611
rtoes -24.0094
lfemur -29.7802 0.645354 -16.2913
ltibia 41.1218
lfoot -16.2968 -7.49243
ltoes -8.68844
933
root 9.67528 15.477 35.1805 503.461 -78.2227 -497.406
lowerback 9.1663 1.73242 -2.60414
upperback -3.80168 2.11926 1.71357
thorax -9.37934 1.23828 2.9336
lowerneck 11.8845 -9.05919 -26.8353
upperneck -9.94195 -16.6749 44.7761
head 2.54172 -10.954 22.4148
rclavicle -1.96797e-014 -2.22639e-014
rhumerus -38.1955 -3.43101 -74.7472
rradius 40.8212
rwrist 18.1835
rhand -11.6155 3.94634
rfingers 7.12502
rthumb 14.4275 -25.5322
lclavicle -1.96797e-014 -2.22639e-014
lhumerus -43.6379 -12.0985 87.3521
lradius 35.1316
lwrist 37.3343
lhand -15.784 -15.5293
lfingers 7.12502
lthumb 10.4085 14.1931
rfemur -65.9924 -2.20515 26.5519
rtibia 110.42
rfoot -12.4969 9.89966
rtoes -24.0986
lfemur -28.7551 0.276777 -16.1036
ltibia 40.569
lfoot -16.104 -7.38705
ltoes -8.69212
934
root 9.66673 15.4941 35.1906 501.238 -78.3122 -495.862
lowerback 9.6426 1.68716 -2.61323
upperback -3.51052 2.06092 1.83776
thorax -9.34158 1.21143 3.07464
lowerneck 11.9682 -9.11388 -26.839
upperneck -10.0864 -16.736 44.7939
head 2.51861 -10.9979 22.4163
rclavicle -2.08475e-014 -1.27222e-014
rhumerus -37.9894 -3.48971 -74.5176
rradius 40.9694
rwrist 18.0985
rhand -11.9812 3.96007
rfingers 7.12502
rthumb 14.0751 -25.5433
lclavicle -2.08475e-014 -1.27222e-014
lhumerus -42.3772 -12.3835 87.1219
lradius 34.8045
lwrist 36.7348
lhand -15.9634 -15.6456
lfingers 7.12502
lthumb 10.2354 14.0854
rfemur -68.2906 -2.54352 26.768
rtibia 112.653
rfoot -12.6463 10.3564
rtoes -24.1506
lfemur -27.6875 -0.0984533 -15.9533
ltibia 40.0244
lfoot -15.9199 -7.29841
ltoes -8.61906
935
root 9.65824 15.5082 35.1996 498.99 -78.403 -494.331
lowerback 10.1313 1.65844 -2.64526
upperback -3.19972 2.02005 1.95984
thorax -9.29115 1.19319 3.22397
lowerneck 12.0666 -9.17585 -26.8325
upperneck -10.2621 -16.8039 44.829
head 2.4895 -11.0499 22.4275
rclavicle -3.42904e-015 7.95139e-015
rhumerus -37.7893 -3.54034 -74.2823
rradius 41.1024
rwrist 17.9967
rhand -12.2479 3.9824
rfingers 7.12502
rthumb 13.8181 -25.5386
lclavicle -3.42904e-015 7.95139e-015
lhumerus -41.0873 -12.5873 86.863
lradius 34.5204
lwrist 36.185
lhand -16.2102 -15.7458
lfingers 7.12502
lthumb 9.99739 13.9968
rfemur -70.5818 -2.85636 26.9536
rtibia 114.754
rfoot -12.758 10.8876
rtoes -24.2279
lfemur -26.5925 -0.45272 -15.8244
ltibia 39.4981
lfoot -15.7557 -7.24115
ltoes -8.52976
936
root 9.64908 15.5189 35.2084 496.773 -78.5084 -492.871
lowerback 10.6283 1.6376 -2.71259
upperback -2.86594 1.98313 2.08362
thorax -9.22156 1.17747 3.39512
lowerneck 12.1653 -9.23759 -26.8427
upperneck -10.4538 -16.873 44.8801
head 2.46224 -11.1047 22.4559
rclavicle -1.00386e-014 1.43125e-014
rhumerus -37.5809 -3.54041 -74.0441
rradius 41.2219
rwrist 17.8708
rhand -12.4117 4.00755
rfingers 7.12502
rthumb 13.6602 -25.5242
lclavicle -1.00386e-014 1.43125e-014
lhumerus -39.8101 -12.7495 86.6189
lradius 34.3349
lwrist 35.773
lhand -16.539 -15.8284
lfingers 7.12502
lthumb 9.68016 13.9292
rfemur -72.8593 -3.15991 27.0771
rtibia 116.73
rfoot -12.8203 11.4931
rtoes -24.33
lfemur -25.4714 -0.786412 -15.7408
ltibia 39.0066
lfoot -15.621 -7.22131
ltoes -8.38575
937
root 9.63866 15.5264 35.2174 494.558 -78.6156 -491.452
lowerback 11.1377 1.62502 -2.79515
upperback -2.51438 1.95283 2.20977
thorax -9.14022 1.16431 3.57687
lowerneck 12.2703 -9.2964 -26.8684
upperneck -10.6596 -16.9409 44.9462
head 2.43463 -11.1615 22.5022
rclavicle 8.27441e-015 -1.59028e-014
rhumerus -37.372 -3.48421 -73.8037
rradius 41.3307
rwrist 17.7295
rhand -12.4552 4.03436
rfingers 7.12502
rthumb 13.6183 -25.5002
lclavicle 8.27441e-015 -1.59028e-014
lhumerus -38.5537 -12.8325 86.3753
lradius 34.2496
lwrist 35.4891
lhand -16.9211 -15.9026
lfingers 7.12502
lthumb 9.31147 13.8718
rfemur -75.1142 -3.44158 27.1489
rtibia 118.582
rfoot -12.8291 12.146
rtoes -24.4981
lfemur -24.3223 -1.10594 -15.6887
ltibia 38.5558
lfoot -15.5246 -7.21622
ltoes -8.2522
